<?xml version="1.0" standalone="no"?>
<!DOCTYPE svg PUBLIC "-//W3C//DTD SVG 20010904//EN"
 "http://www.w3.org/TR/2001/REC-SVG-20010904/DTD/svg10.dtd">
<svg version="1.0" xmlns="http://www.w3.org/2000/svg"
 width="800.000000pt" height="800.000000pt" viewBox="0 0 800.000000 800.000000"
 preserveAspectRatio="xMidYMid meet">

<g transform="translate(0.000000,800.000000) scale(0.100000,-0.100000)"
fill="#000000" stroke="none">
<path d="M3884 7494 c-28 -7 -76 -27 -105 -42 -87 -47 -152 -84 -179 -102 -14
-10 -35 -21 -47 -24 -13 -4 -23 -11 -23 -16 0 -4 -8 -10 -17 -13 -10 -4 -36
-18 -58 -31 -22 -14 -51 -30 -64 -36 -13 -6 -35 -19 -50 -29 -14 -10 -46 -29
-71 -43 -25 -14 -61 -35 -80 -47 -19 -11 -42 -24 -50 -28 -7 -4 -42 -24 -77
-45 -34 -21 -65 -38 -68 -38 -3 0 -50 -27 -104 -60 -55 -33 -102 -60 -106 -60
-3 0 -25 -12 -48 -27 -66 -44 -81 -53 -97 -60 -13 -5 -113 -62 -175 -100 -11
-6 -33 -19 -50 -27 -16 -9 -48 -27 -70 -41 -22 -14 -62 -37 -90 -51 -27 -15
-52 -29 -55 -33 -3 -3 -21 -14 -40 -24 -19 -9 -53 -29 -75 -43 -22 -13 -48
-27 -57 -31 -10 -3 -18 -8 -18 -12 0 -3 -15 -12 -32 -20 -18 -8 -52 -27 -75
-43 -23 -15 -52 -33 -65 -38 -13 -6 -36 -19 -53 -30 -37 -24 -75 -46 -152 -87
-34 -18 -81 -46 -105 -62 -25 -17 -56 -35 -69 -41 -13 -6 -37 -19 -54 -29 -67
-41 -103 -61 -160 -91 -166 -88 -256 -185 -309 -335 -21 -60 -21 -64 -24
-1610 -2 -1124 0 -1570 8 -1623 14 -91 67 -208 114 -254 20 -19 36 -39 36 -45
0 -19 -4 -17 860 -515 195 -113 693 -400 1105 -638 413 -239 772 -442 798
-452 108 -41 246 -42 357 -1 25 9 189 99 365 201 176 102 421 243 545 315 124
71 383 221 575 332 428 247 958 554 1120 647 66 38 137 86 159 106 54 52 112
144 139 221 l22 66 3 1550 c2 1092 0 1573 -8 1627 -23 161 -106 277 -265 371
-44 26 -87 52 -95 57 -8 5 -31 18 -50 28 -52 27 -84 46 -90 53 -3 4 -27 18
-55 33 -27 14 -72 40 -100 56 -27 17 -63 37 -80 46 -16 8 -48 26 -70 39 -22
13 -47 27 -55 31 -8 4 -33 19 -55 34 -22 14 -51 31 -65 38 -14 7 -47 26 -75
43 -27 17 -72 43 -100 57 -27 14 -52 29 -55 32 -3 3 -16 11 -30 17 -14 7 -43
24 -65 38 -22 14 -52 30 -67 36 -16 6 -28 15 -28 19 0 4 -12 13 -27 20 -34 13
-88 43 -105 57 -7 6 -53 32 -103 58 -49 27 -92 51 -95 55 -3 4 -18 14 -35 22
-68 35 -150 82 -155 88 -3 4 -45 28 -95 55 -49 26 -92 51 -95 55 -3 4 -34 23
-70 42 -36 19 -83 46 -105 59 -22 14 -80 48 -128 75 -48 27 -105 59 -125 71
-20 12 -59 34 -87 49 -27 15 -68 39 -90 54 -22 15 -44 29 -50 30 -5 2 -26 13
-45 25 -124 78 -285 105 -416 69z m566 -1513 c164 -31 300 -73 450 -137 85
-36 251 -124 268 -141 7 -7 20 -13 28 -13 8 0 14 -4 14 -8 0 -5 12 -15 28 -23
15 -7 48 -31 73 -51 25 -21 49 -38 53 -38 8 0 18 -9 152 -138 104 -101 204
-208 204 -219 0 -3 7 -13 15 -22 47 -50 155 -215 155 -237 0 -7 -163 -108
-362 -224 -200 -117 -384 -226 -411 -241 -47 -29 -77 -37 -77 -21 0 14 -67
114 -102 153 -10 10 -18 22 -18 25 0 9 -142 147 -169 164 -13 8 -36 24 -50 35
-183 142 -454 221 -676 196 -171 -18 -288 -57 -441 -147 -111 -65 -187 -128
-262 -219 -17 -22 -37 -45 -42 -52 -6 -7 -10 -16 -10 -22 0 -5 -4 -11 -8 -13
-17 -6 -95 -152 -122 -227 -78 -213 -86 -434 -24 -651 21 -73 113 -275 133
-290 3 -3 12 -17 20 -31 21 -41 125 -152 194 -207 121 -97 253 -161 414 -203
126 -33 357 -33 488 1 197 50 353 138 495 280 l85 85 402 -240 c221 -132 402
-244 403 -249 0 -18 -140 -187 -234 -281 -476 -474 -1168 -679 -1824 -540
-473 100 -900 375 -1199 773 -140 186 -153 209 -262 455 -21 48 -32 79 -65
197 -101 350 -100 719 1 1085 35 127 116 327 171 420 10 17 31 53 47 80 16 28
32 52 35 55 3 3 26 34 51 70 24 35 51 72 59 81 8 10 29 35 45 55 41 51 172
182 225 224 24 19 51 43 62 53 10 9 20 17 23 17 3 0 31 20 64 45 32 25 62 45
66 45 3 0 21 11 38 24 18 14 79 47 137 76 58 28 116 57 130 65 82 44 365 121
536 144 117 16 473 6 594 -18z m1338 -1681 l-3 -90 133 0 132 0 0 90 0 90 110
0 110 0 0 -90 0 -90 88 0 87 0 0 -107 0 -108 -88 0 -87 0 0 -132 0 -132 88 -3
87 -3 0 -105 0 -105 -87 -3 -88 -3 0 -89 0 -90 -110 0 -110 0 0 90 0 90 -132
0 -133 0 0 -87 0 -88 -107 -3 -108 -3 0 91 0 90 -90 0 -90 0 0 110 0 110 90 0
90 0 0 133 0 132 -87 0 -88 0 -3 108 -3 107 91 0 90 0 0 90 0 90 111 0 110 0
-3 -90z"/>
<path d="M5790 3995 c0 0 -2 -60 -3 -133 l-2 -132 133 0 132 0 0 133 0 132
-130 0 c-71 0 -130 0 -130 0z"/>
</g>
</svg>
